<?xml version="1.0" standalone="no"?><!DOCTYPE svg PUBLIC "-//W3C//DTD SVG 1.1//EN" "http://www.w3.org/Graphics/SVG/1.1/DTD/svg11.dtd"><svg t="1722228520099" class="icon" viewBox="0 0 1024 1024" version="1.1" xmlns="http://www.w3.org/2000/svg" p-id="94631" xmlns:xlink="http://www.w3.org/1999/xlink" width="256" height="256"><path d="M925.78 551.73c-22.62-53.48-55-101.5-96.23-142.74s-89.26-73.61-142.74-96.23c-55.38-23.42-114.19-35.3-174.81-35.3s-119.43 11.88-174.81 35.3c-53.48 22.62-101.5 55-142.74 96.23s-73.61 89.26-96.23 142.74c-23.42 55.38-35.3 114.19-35.3 174.81 0 11.05 8.95 20 20 20s20-8.95 20-20c0-225.57 183.51-409.08 409.08-409.08s409.08 183.51 409.08 409.08c0 11.05 8.95 20 20 20s20-8.95 20-20c0-60.62-11.87-119.43-35.3-174.81z" fill="#8a8a8a" p-id="94632"></path><path d="M512 449.09c-74.11 0-143.78 28.86-196.19 81.26-52.4 52.4-81.26 122.08-81.26 196.19 0 11.05 8.95 20 20 20s20-8.95 20-20c0-130.93 106.52-237.45 237.45-237.45s237.45 106.52 237.45 237.45c0 11.05 8.95 20 20 20s20-8.95 20-20c0-74.11-28.86-143.78-81.26-196.19-52.41-52.4-122.08-81.26-196.19-81.26z" fill="#8a8a8a" p-id="94633"></path><path d="M512 620.72c-58.35 0-105.82 47.47-105.82 105.82 0 11.05 8.95 20 20 20s20-8.95 20-20c0-36.29 29.52-65.82 65.82-65.82s65.82 29.52 65.82 65.82c0 11.05 8.95 20 20 20s20-8.95 20-20c0-58.35-47.47-105.82-105.82-105.82z" fill="#8a8a8a" p-id="94634"></path></svg>