<?xml version="1.0" standalone="no"?><!DOCTYPE svg PUBLIC "-//W3C//DTD SVG 1.1//EN" "http://www.w3.org/Graphics/SVG/1.1/DTD/svg11.dtd"><svg t="1721983692350" class="icon" viewBox="0 0 1024 1024" version="1.1" xmlns="http://www.w3.org/2000/svg" p-id="77214" xmlns:xlink="http://www.w3.org/1999/xlink" width="256" height="256"><path d="M494.419567 525.646911m-410.169959 0a410.169959 410.169959 0 1 0 820.339918 0 410.169959 410.169959 0 1 0-820.339918 0Z" fill="#F3F3F3" p-id="77215"></path><path d="M718.108498 503.209784h227.903418v10.596425h-227.903418z" fill="#003333" p-id="77216"></path><path d="M1001.442458 374.407024h-342.818438c-15.734086 0-20.550643 9.873942-17.540295 21.513954v-0.441517a8.027595 8.027595 0 0 0 0.240828 2.408278l24.96582 93.682032c3.732832 14.208843 7.104421 14.650361 25.608028 14.650361h286.625274c14.891188 0 22.156162 0 25.086234-14.248981l19.306366-94.003136a8.70994 8.70994 0 0 0 0-1.083725l0.923173-8.027595c1.404829-11.559737-13.646911-14.449671-22.39699-14.449671z m-360.158043 19.868297a6.622766 6.622766 0 0 0 0 0.682346 1.308498 1.308498 0 0 1 0-0.682346z m0.762622-2.16745v0.321104z m-0.441518 1.003449v0.561932z m14.008153-9.151458h1.565381z m-9.5127 3.532142z m1.123863-0.762622h0.20069z m1.244278-0.682345h0.321103z m1.324553-0.60207h0.441517z m1.404829-0.521794h0.561931z m1.444967-0.441517h0.722483z m1.485105-0.321104h0.923173z" fill="#344F84" p-id="77217"></path><path d="M658.62402 374.407024h342.818438c8.750078 0 23.801819 3.050486 22.477266 14.489809l-0.923173 8.027595a18.343054 18.343054 0 0 0-16.05519-13.004704h-349.802446c-8.027595 0-16.05519 5.458765-16.05519 12.041392-3.050486-11.640013 1.806209-21.513954 17.540295-21.513954z" fill="" p-id="77218"></path><path d="M658.543744 390.462214l348.999687-0.361242-18.82471 109.054876-308.299781 0.080276-21.875196-108.77391z" fill="#FFFFFF" p-id="77219"></path><path d="M675.682659 509.391032h314.721857a9.5127 9.5127 0 0 1 9.472561 9.472562v173.5566a9.5127 9.5127 0 0 1-9.472561 9.472562h-314.721857a9.5127 9.5127 0 0 1-9.472562-9.472562v-173.5566a9.5127 9.5127 0 0 1 9.472562-9.472562z" fill="#C6C6C6" p-id="77220"></path><path d="M999.917215 518.863594a9.5127 9.5127 0 0 0-9.472562-9.472562h-26.491063l-200.689871 192.662276h227.100659a9.5127 9.5127 0 0 0 9.472561-9.472562z" fill="" p-id="77221"></path><path d="M788.470367 643.211038h89.146441v46.680464h-89.146441z" fill="#223666" p-id="77222"></path><path d="M682.746943 525.646911h300.593289v109.255566H682.746943z" fill="" p-id="77223"></path><path d="M689.249294 532.109125h13.968016a1.766071 1.766071 0 0 1 1.485105 1.926623v15.011602a1.766071 1.766071 0 0 1-1.485105 1.926623h-13.968016a1.766071 1.766071 0 0 1-1.525243-1.926623v-15.011602a1.766071 1.766071 0 0 1 1.525243-1.926623zM711.887112 532.109125h13.968015a1.766071 1.766071 0 0 1 1.525243 1.926623v15.011602a1.766071 1.766071 0 0 1-1.525243 1.926623h-13.968015a1.766071 1.766071 0 0 1-1.525243-1.926623v-15.011602a1.766071 1.766071 0 0 1 1.525243-1.926623zM734.524929 532.109125h13.927878a1.766071 1.766071 0 0 1 1.525243 1.926623v15.011602a1.766071 1.766071 0 0 1-1.525243 1.926623H734.524929a1.766071 1.766071 0 0 1-1.525243-1.926623v-15.011602a1.766071 1.766071 0 0 1 1.525243-1.926623zM757.202885 532.109125h13.927877a1.766071 1.766071 0 0 1 1.525243 1.926623v15.011602a1.766071 1.766071 0 0 1-1.525243 1.926623h-13.927877a1.766071 1.766071 0 0 1-1.525243-1.926623v-15.011602a1.766071 1.766071 0 0 1 1.525243-1.926623zM779.840702 532.109125h13.968015a1.766071 1.766071 0 0 1 1.525243 1.926623v15.011602a1.766071 1.766071 0 0 1-1.525243 1.926623h-13.968015a1.766071 1.766071 0 0 1-1.525243-1.926623v-15.011602a1.766071 1.766071 0 0 1 1.525243-1.926623zM802.518658 532.109125h13.927877a1.766071 1.766071 0 0 1 1.525243 1.926623v15.011602a1.766071 1.766071 0 0 1-1.525243 1.926623h-13.927877a1.766071 1.766071 0 0 1-1.525243-1.926623v-15.011602a1.766071 1.766071 0 0 1 1.525243-1.926623zM825.156475 532.109125H838.883663a1.766071 1.766071 0 0 1 1.525243 1.926623v15.011602a1.766071 1.766071 0 0 1-1.525243 1.926623h-13.927877a1.766071 1.766071 0 0 1-1.525244-1.926623v-15.011602a1.766071 1.766071 0 0 1 1.525244-1.926623zM847.794293 532.109125h13.968015a1.766071 1.766071 0 0 1 1.525243 1.926623v15.011602a1.766071 1.766071 0 0 1-1.525243 1.926623h-13.968015a1.766071 1.766071 0 0 1-1.525243-1.926623v-15.011602a1.766071 1.766071 0 0 1 1.525243-1.926623zM870.472248 532.109125h13.927877a1.766071 1.766071 0 0 1 1.525243 1.926623v15.011602a1.766071 1.766071 0 0 1-1.525243 1.926623h-13.927877a1.766071 1.766071 0 0 1-1.525243-1.926623v-15.011602a1.766071 1.766071 0 0 1 1.525243-1.926623zM893.110066 532.109125H907.118219a1.766071 1.766071 0 0 1 1.525243 1.926623v15.011602a1.766071 1.766071 0 0 1-1.525243 1.926623h-13.927877a1.766071 1.766071 0 0 1-1.525243-1.926623v-15.011602a1.766071 1.766071 0 0 1 1.525243-1.926623zM915.747883 532.109125h13.968015a1.766071 1.766071 0 0 1 1.525243 1.926623v15.011602a1.766071 1.766071 0 0 1-1.525243 1.926623h-13.968015a1.766071 1.766071 0 0 1-1.525243-1.926623v-15.011602a1.766071 1.766071 0 0 1 1.525243-1.926623zM723.286297 558.35936h13.927877a1.766071 1.766071 0 0 1 1.525243 1.926623v15.011602a1.766071 1.766071 0 0 1-1.525243 1.926623h-13.927877a1.766071 1.766071 0 0 1-1.525243-1.926623v-15.011602a1.766071 1.766071 0 0 1 1.525243-1.926623zM745.924114 558.35936h13.968015a1.766071 1.766071 0 0 1 1.525243 1.926623v15.011602a1.766071 1.766071 0 0 1-1.525243 1.926623h-13.968015a1.766071 1.766071 0 0 1-1.525243-1.926623v-15.011602a1.766071 1.766071 0 0 1 1.525243-1.926623zM768.561932 558.35936H782.690499a1.766071 1.766071 0 0 1 1.525243 1.926623v15.011602a1.766071 1.766071 0 0 1-1.525243 1.926623h-13.968015a1.766071 1.766071 0 0 1-1.485106-1.926623v-15.011602a1.766071 1.766071 0 0 1 1.485106-1.926623zM791.199749 558.35936h13.927877a1.766071 1.766071 0 0 1 1.525243 1.926623v15.011602a1.766071 1.766071 0 0 1-1.525243 1.926623h-13.927877a1.766071 1.766071 0 0 1-1.525243-1.926623v-15.011602a1.766071 1.766071 0 0 1 1.525243-1.926623zM813.837567 558.35936h13.968015a1.766071 1.766071 0 0 1 1.485105 1.926623v15.011602a1.766071 1.766071 0 0 1-1.485105 1.926623h-13.968015a1.766071 1.766071 0 0 1-1.525243-1.926623v-15.011602a1.766071 1.766071 0 0 1 1.525243-1.926623zM836.475384 558.35936h13.968015a1.766071 1.766071 0 0 1 1.525243 1.926623v15.011602a1.766071 1.766071 0 0 1-1.525243 1.926623h-13.968015a1.766071 1.766071 0 0 1-1.525243-1.926623v-15.011602a1.766071 1.766071 0 0 1 1.525243-1.926623zM859.15334 558.35936h13.927877a1.766071 1.766071 0 0 1 1.525243 1.926623v15.011602a1.766071 1.766071 0 0 1-1.525243 1.926623h-13.927877a1.766071 1.766071 0 0 1-1.525243-1.926623v-15.011602a1.766071 1.766071 0 0 1 1.525243-1.926623zM881.791157 558.35936h13.968015a1.766071 1.766071 0 0 1 1.485105 1.926623v15.011602a1.766071 1.766071 0 0 1-1.485105 1.926623h-13.968015a1.766071 1.766071 0 0 1-1.525243-1.926623v-15.011602a1.766071 1.766071 0 0 1 1.525243-1.926623zM904.428975 558.35936h13.968015a1.766071 1.766071 0 0 1 1.525243 1.926623v15.011602a1.766071 1.766071 0 0 1-1.525243 1.926623h-13.968015a1.766071 1.766071 0 0 1-1.525243-1.926623v-15.011602a1.766071 1.766071 0 0 1 1.525243-1.926623zM927.187206 558.35936h13.927877a1.766071 1.766071 0 0 1 1.525243 1.926623v15.011602a1.766071 1.766071 0 0 1-1.525243 1.926623H927.187206a1.766071 1.766071 0 0 1-1.525243-1.926623v-15.011602a1.766071 1.766071 0 0 1 1.525243-1.926623zM938.425839 532.109125h13.927877a1.766071 1.766071 0 0 1 1.525243 1.926623v15.011602a1.766071 1.766071 0 0 1-1.525243 1.926623h-13.927877a1.766071 1.766071 0 0 1-1.525243-1.926623v-15.011602a1.766071 1.766071 0 0 1 1.525243-1.926623zM961.063656 532.109125h13.927877a1.766071 1.766071 0 0 1 1.525243 1.926623v15.011602a1.766071 1.766071 0 0 1-1.525243 1.926623h-13.927877a1.766071 1.766071 0 0 1-1.525243-1.926623v-15.011602a1.766071 1.766071 0 0 1 1.525243-1.926623zM950.105989 558.35936h24.845406a1.766071 1.766071 0 0 1 1.525243 1.926623v15.011602a1.766071 1.766071 0 0 1-1.525243 1.926623h-24.845406a1.766071 1.766071 0 0 1-1.525243-1.926623v-15.011602a1.766071 1.766071 0 0 1 1.525243-1.926623zM689.490122 558.35936h25.808718a1.766071 1.766071 0 0 1 1.525243 1.926623v15.011602a1.766071 1.766071 0 0 1-1.525243 1.926623h-25.808718a1.766071 1.766071 0 0 1-1.525243-1.926623v-15.011602a1.766071 1.766071 0 0 1 1.525243-1.926623zM689.490122 584.609595h30.825965a1.766071 1.766071 0 0 1 1.525243 1.926623v15.011603a1.766071 1.766071 0 0 1-1.525243 1.926622h-30.825965a1.766071 1.766071 0 0 1-1.525243-1.926622v-15.011603a1.766071 1.766071 0 0 1 1.525243-1.926623zM689.490122 610.859831h13.887739a1.766071 1.766071 0 0 1 1.525243 1.926622v15.011603a1.766071 1.766071 0 0 1-1.525243 1.926623h-13.887739a1.766071 1.766071 0 0 1-1.525243-1.926623v-15.011603a1.766071 1.766071 0 0 1 1.525243-1.926622zM712.087802 610.859831h13.887739a1.766071 1.766071 0 0 1 1.525243 1.926622v15.011603a1.766071 1.766071 0 0 1-1.525243 1.926623h-13.887739a1.766071 1.766071 0 0 1-1.525243-1.926623v-15.011603a1.766071 1.766071 0 0 1 1.525243-1.926622zM734.524929 610.859831h13.88774a1.766071 1.766071 0 0 1 1.525243 1.926622v15.011603a1.766071 1.766071 0 0 1-1.525243 1.926623H734.524929a1.766071 1.766071 0 0 1-1.525243-1.926623v-15.011603a1.766071 1.766071 0 0 1 1.525243-1.926622zM757.323299 610.859831h144.817811a1.766071 1.766071 0 0 1 1.525243 1.926622v15.011603a1.766071 1.766071 0 0 1-1.525243 1.926623h-144.817811a1.766071 1.766071 0 0 1-1.525243-1.926623v-15.011603a1.766071 1.766071 0 0 1 1.525243-1.926622zM728.664785 584.850423H742.552524a1.766071 1.766071 0 0 1 1.525243 1.926623v15.011602a1.766071 1.766071 0 0 1-1.525243 1.926623h-13.927877a1.766071 1.766071 0 0 1-1.525243-1.926623v-14.971464a1.766071 1.766071 0 0 1 1.525243-1.926623zM751.302603 584.850423h13.968015a1.766071 1.766071 0 0 1 1.525243 1.926623v15.011602a1.766071 1.766071 0 0 1-1.525243 1.926623h-13.968015a1.766071 1.766071 0 0 1-1.525243-1.926623v-14.971464a1.766071 1.766071 0 0 1 1.525243-1.926623zM773.94042 584.850423h13.968015a1.766071 1.766071 0 0 1 1.525243 1.926623v15.011602a1.766071 1.766071 0 0 1-1.525243 1.926623h-13.968015a1.766071 1.766071 0 0 1-1.485105-1.926623v-14.971464a1.766071 1.766071 0 0 1 1.485105-1.926623zM796.618376 584.850423h13.927877a1.766071 1.766071 0 0 1 1.525243 1.926623v15.011602a1.766071 1.766071 0 0 1-1.525243 1.926623h-13.927877a1.766071 1.766071 0 0 1-1.525243-1.926623v-14.971464a1.766071 1.766071 0 0 1 1.525243-1.926623zM819.256193 584.850423h13.968015a1.766071 1.766071 0 0 1 1.485105 1.926623v15.011602a1.766071 1.766071 0 0 1-1.485105 1.926623h-13.968015a1.766071 1.766071 0 0 1-1.525243-1.926623v-14.971464a1.766071 1.766071 0 0 1 1.525243-1.926623zM841.894011 584.850423h13.968015a1.766071 1.766071 0 0 1 1.525243 1.926623v15.011602a1.766071 1.766071 0 0 1-1.525243 1.926623h-13.968015a1.766071 1.766071 0 0 1-1.525243-1.926623v-14.971464a1.766071 1.766071 0 0 1 1.525243-1.926623zM864.571966 584.850423h13.927877a1.766071 1.766071 0 0 1 1.525243 1.926623v15.011602a1.766071 1.766071 0 0 1-1.525243 1.926623h-13.927877a1.766071 1.766071 0 0 1-1.525243-1.926623v-14.971464a1.766071 1.766071 0 0 1 1.525243-1.926623zM887.049232 584.850423h13.968015a1.766071 1.766071 0 0 1 1.485105 1.926623v15.011602a1.766071 1.766071 0 0 1-1.485105 1.926623H887.049232a1.766071 1.766071 0 0 1-1.525243-1.926623v-14.971464a1.766071 1.766071 0 0 1 1.525243-1.926623zM909.847601 584.850423h25.929132a1.766071 1.766071 0 0 1 1.525243 1.926623v15.011602a1.766071 1.766071 0 0 1-1.525243 1.926623h-25.929132a1.766071 1.766071 0 0 1-1.525243-1.926623v-14.971464a1.766071 1.766071 0 0 1 1.525243-1.926623zM944.005017 584.609595h30.825964a1.766071 1.766071 0 0 1 1.525244 1.926623v15.011603a1.766071 1.766071 0 0 1-1.525244 1.926622h-30.825964a1.766071 1.766071 0 0 1-1.525243-1.926622v-15.011603a1.766071 1.766071 0 0 1 1.525243-1.926623zM946.774537 610.859831h11.599875a0.60207 0.60207 0 0 1 0.561932 0.642207v5.217937a0.60207 0.60207 0 0 1-0.561932 0.642208h-11.599875a0.60207 0.60207 0 0 1-0.521793-0.642208v-5.217937a0.60207 0.60207 0 0 1 0.521793-0.642207zM946.774537 622.138601h11.599875a0.60207 0.60207 0 0 1 0.561932 0.682346v5.177799a0.60207 0.60207 0 0 1-0.561932 0.682345h-11.599875a0.60207 0.60207 0 0 1-0.521793-0.682345v-5.177799a0.60207 0.60207 0 0 1 0.521793-0.682346zM929.515209 622.138601h11.640012a0.60207 0.60207 0 0 1 0.521794 0.682346v5.177799a0.60207 0.60207 0 0 1-0.521794 0.682345h-11.640012a0.60207 0.60207 0 0 1-0.521794-0.682345v-5.177799a0.60207 0.60207 0 0 1 0.521794-0.682346zM963.95359 622.138601h11.599875a0.60207 0.60207 0 0 1 0.521794 0.682346v5.177799a0.60207 0.60207 0 0 1-0.521794 0.682345h-11.599875a0.642208 0.642208 0 0 1-0.561931-0.682345v-5.177799a0.642208 0.642208 0 0 1 0.561931-0.682346zM909.285669 610.859831H923.173409a1.766071 1.766071 0 0 1 1.525243 1.926622v15.011603a1.766071 1.766071 0 0 1-1.525243 1.926623h-13.968015a1.766071 1.766071 0 0 1-1.525243-1.926623v-15.011603a1.766071 1.766071 0 0 1 1.525243-1.926622z" fill="#333333" p-id="77224"></path><path d="M914.343054 321.465036a13.767325 13.767325 0 0 1 19.145814 3.532142 13.767325 13.767325 0 0 1-3.532142 19.145814l-61.892756 42.626528a13.727187 13.727187 0 0 1-19.105676-3.532142 13.767325 13.767325 0 0 1 3.532142-19.105675z" fill="#F94B68" p-id="77225"></path><path d="M910.85105 326.442145a11.680151 11.680151 0 0 1 16.05519 2.97021 11.680151 11.680151 0 0 1-2.97021 16.05519l-52.50047 36.124177a11.680151 11.680151 0 0 1-16.05519-2.970211 11.680151 11.680151 0 0 1 2.97021-16.055189z" fill="" p-id="77226"></path><path d="M846.911257 371.838194a13.727187 13.727187 0 0 0 10.435874 17.058639 13.285669 13.285669 0 0 0-2.689245-10.917529 14.891188 14.891188 0 0 0-7.746629-6.14111z" fill="" p-id="77227"></path><path d="M749.937912 374.88868a63.096896 63.096896 0 1 0 91.715271 22.477265l13.285669-9.151458s2.528692-11.599875-8.50925-13.847601l-14.289119 9.873942a63.096896 63.096896 0 0 0-82.202571-9.352148z m76.262151 24.082784a49.369708 49.369708 0 1 1-68.676074-12.603324 49.369708 49.369708 0 0 1 68.876764 12.442773z" fill="#3ACEB2" p-id="77228"></path><path d="M736.652242 431.724051a49.32957 49.32957 0 0 0 73.613045 37.890248c-45.717153 10.837253-65.826278-19.507056-73.613045-37.890248z" fill="" p-id="77229"></path><path d="M817.409846 460.824083a17.419881 17.419881 0 0 1 5.177799 2.97021l7.184697-2.97021 4.816557 8.348698-6.020696 4.977109a17.901537 17.901537 0 0 1 0.280966 3.050486 17.138915 17.138915 0 0 1-0.20069 2.689245l6.261524 4.816556-4.816557 8.348699-7.224835-2.689244a17.379743 17.379743 0 0 1-5.097523 3.090624l-1.003449 7.626215h-9.673252l-1.284415-7.505801a17.058639 17.058639 0 0 1-5.177799-2.97021l-7.184697 2.97021-4.816557-8.348699 6.020696-4.977109a17.580433 17.580433 0 0 1 0-5.779868l-6.261524-4.816557 4.816557-8.348699 7.224835 2.689245a17.058639 17.058639 0 0 1 5.097523-3.090624l1.003449-7.626215h9.673252z" fill="#F05161" p-id="77230"></path><path d="M811.58984 489.683286a12.563186 12.563186 0 1 0-12.563186-12.563186 12.563186 12.563186 0 0 0 12.563186 12.563186z" fill="" p-id="77231"></path><path d="M811.58984 485.669489a8.308561 8.308561 0 1 0-8.308561-8.308561 8.348699 8.348699 0 0 0 8.308561 8.308561z" fill="#FFFFFF" p-id="77232"></path><path d="M834.869865 389.338351a25.407338 25.407338 0 0 1 8.669803 1.846346l8.790216-7.425525L862.966447 393.352148l-6.221386 9.753528a26.089683 26.089683 0 0 1 2.689244 8.027595l10.997805 4.013797-3.010348 14.008153-11.399184-0.481656a25.527752 25.527752 0 0 1-5.820007 6.662904l2.047037 11.238633-13.606773 4.375039-5.217937-9.994355a25.327062 25.327062 0 0 1-8.669802-1.846347l-8.790217 7.425525-10.596425-9.592976 6.221386-9.753528a26.169959 26.169959 0 0 1-1.766071-4.013797 26.772029 26.772029 0 0 1-0.923173-4.013798l-10.997805-4.013797 3.010348-13.968015 11.399185 0.481656a25.407338 25.407338 0 0 1 5.820006-6.662904l-2.047037-11.238633 13.606773-4.375039z" fill="#F39C12" p-id="77233"></path><path d="M833.98683 435.456883a20.068987 20.068987 0 1 0-20.068987-20.068987 20.269677 20.269677 0 0 0 20.068987 20.068987z" fill="" p-id="77234"></path><path d="M837.799937 426.947632a12.322358 12.322358 0 1 0-15.533396-8.027594 12.362496 12.362496 0 0 0 15.533396 8.027594z" fill="#FFFFFF" p-id="77235"></path><path d="M778.11477 446.133584a7.264973 7.264973 0 0 1 2.408278-0.561931l1.364691-2.930073 4.013798 1.164002-0.441518 3.211038a7.385387 7.385387 0 0 1 0.963311 0.842897 7.746629 7.746629 0 0 1 0.722484 0.883036l3.251176-0.321104 0.883035 4.013797-2.97021 1.244277a7.264973 7.264973 0 0 1-0.682346 2.408279l1.846347 2.608968-2.930072 2.729382-2.528692-1.926622a7.144559 7.144559 0 0 1-2.408279 0.561931l-1.364691 2.930072-4.013797-1.204139 0.441517-3.211038a6.903732 6.903732 0 0 1-0.963311-0.842897 7.264973 7.264973 0 0 1-0.722483-0.883036l-3.251176 0.321104-0.883036-4.013797 2.97021-1.244278a7.144559 7.144559 0 0 1 0.682346-2.408278l-1.846347-2.608968 2.930072-2.729383z" fill="#EA844B" p-id="77236"></path><path d="M784.536845 456.609595a5.217937 5.217937 0 1 0-7.385387-0.280965 5.217937 5.217937 0 0 0 7.385387 0.280965z" fill="" p-id="77237"></path><path d="M783.332706 455.32518a3.451866 3.451866 0 1 0-4.896833 0 3.451866 3.451866 0 0 0 4.896833 0z" fill="#FFFFFF" p-id="77238"></path><path d="M763.183443 419.481969a10.676701 10.676701 0 0 1 3.1709-1.886485l0.561932-4.73628h5.94042l0.883035 4.73628a10.797115 10.797115 0 0 1 1.725933 0.80276 10.997805 10.997805 0 0 1 1.404829 0.923173l4.455315-1.926622 3.050487 5.097522-3.612418 3.090624a10.676701 10.676701 0 0 1 0 3.692694l3.813107 2.849796-2.889934 5.177799-4.415177-1.565381a10.636563 10.636563 0 0 1-3.1709 1.886485l-0.561932 4.736281h-5.94042L766.635309 437.50392a10.917529 10.917529 0 0 1-1.725933-0.80276 10.516149 10.516149 0 0 1-1.404829-0.923173l-4.455315 1.926623-3.050486-5.097523 3.612417-3.090624a10.516149 10.516149 0 0 1 0-3.692694l-3.813107-2.849796 2.889934-5.177799z" fill="#1ABC9C" p-id="77239"></path><path d="M775.987457 433.690812a8.428975 8.428975 0 1 0-12.041392-0.441518 8.428975 8.428975 0 0 0 12.041392 0.441518z" fill="" p-id="77240"></path><path d="M774.662904 430.038257a5.137661 5.137661 0 1 0-6.984008 1.96676 5.137661 5.137661 0 0 0 6.984008-1.96676z" fill="#FFFFFF" p-id="77241"></path><path d="M250.661649 671.30762c-18.503606-16.336156-10.074632-54.467231-10.074631-54.467231H185.397303s8.428975 38.131076-10.074631 54.467231a66.348071 66.348071 0 0 1-40.137975 16.336155v9.191597h155.574789v-9.191597a66.348071 66.348071 0 0 1-40.097837-16.336155z" fill="#A5A5A5" p-id="77242"></path><path d="M135.184697 687.643775h155.574789v9.191597H135.184697z" fill="#FFFFFF" p-id="77243"></path><path d="M7.385387 367.663844m24.524303 0l362.164942 0q24.524302 0 24.524302 24.524303l0 200.12794q0 24.524302-24.524302 24.524302l-362.164942 0q-24.524302 0-24.524303-24.524302l0-200.12794q0-24.524302 24.524303-24.524303Z" fill="#CCCCCC" p-id="77244"></path><path d="M7.385387 392.148009v200.168078a24.36375 24.36375 0 0 0 3.732832 12.924427h403.788021a24.36375 24.36375 0 0 0 3.732832-12.924427V392.148009a24.36375 24.36375 0 0 0-6.381938-16.45657H13.767325a24.36375 24.36375 0 0 0-6.381938 16.45657z" fill="#223666" p-id="77245"></path><path d="M25.086234 384h375.811853v212.771402H25.086234z" fill="#E2E2E2" p-id="77246"></path><path d="M62.374412 520.148009h40.137974v76.583255h-40.137974z" fill="#9AC900" p-id="77247"></path><path d="M130.448416 497.068674h40.137975v99.702728h-40.137975z" fill="#C3DF00" p-id="77248"></path><path d="M199.12449 448.421449h40.137975v148.309815h-40.137975z" fill="#DFC300" p-id="77249"></path><path d="M270.85105 422.893697h40.137975v173.837567h-40.137975z" fill="#E85F00" p-id="77250"></path><path d="M339.286297 396.08153h40.097836v197.117592h-40.097836z" fill="#E53400" p-id="77251"></path><path d="M51.818125 550.893697l-3.692694-4.936971 116.640953-87.500784 125.02979-13.044841 88.022578-51.978677 3.130762 5.298213-89.186579 52.70116-124.668548 13.004703-115.276262 86.457197z" fill="#34495E" p-id="77252"></path><path d="M49.971778 548.405143m-10.034494 0a10.034494 10.034494 0 1 0 20.068988 0 10.034494 10.034494 0 1 0-20.068988 0Z" fill="#0CC1B0" p-id="77253"></path><path d="M165.930386 461.46629m-10.034494 0a10.034494 10.034494 0 1 0 20.068987 0 10.034494 10.034494 0 1 0-20.068987 0Z" fill="#0CC1B0" p-id="77254"></path><path d="M290.759486 448.421449m-10.034494 0a10.034494 10.034494 0 1 0 20.068987 0 10.034494 10.034494 0 1 0-20.068987 0Z" fill="#0CC1B0" p-id="77255"></path><path d="M379.384133 396.08153m-10.034494 0a10.034494 10.034494 0 1 0 20.068988 0 10.034494 10.034494 0 1 0-20.068988 0Z" fill="#0CC1B0" p-id="77256"></path><path d="M438.788335 663.962371l5.579178-49.449985 121.457511-24.845406-2.087175 38.45218 5.057385 32.150517-17.540295 16.536845-38.532455 14.248981-54.547508-12.603324-19.386641-14.489808z" fill="#F6B98A" p-id="77257"></path><path d="M422.532455 660.269677l18.904986-20.068987s18.82471 46.479774 64.943243 43.710254A67.030417 67.030417 0 0 0 565.945437 642.408278l24.323613 17.861399 1.766071 45.074945s-93.32079 24.082785-108.011289 20.630919-66.428347-28.096582-66.428348-28.096582z" fill="#EFB73A" p-id="77258"></path><path d="M590.309188 660.269677c-16.777673 44.151772-83.888366 48.165569-83.888366 48.165569s-67.110693-4.013797-83.888367-48.165569c0 0-155.173409 37.729696-167.776732 186.64158 0 0 62.936344 123.745375 251.665099 136.469113 188.648479-12.563186 251.665099-136.469113 251.665098-136.469113-12.603324-148.871747-167.776733-186.64158-167.776732-186.64158z" fill="#22B573" p-id="77259"></path><path d="M620.693634 397.08498c-13.646911-49.289432-114.312951-65.023518-114.31295-65.023519s-100.66604 15.734086-114.312951 65.023519-3.130762 105.924114 11.519598 149.955472 44.151772 98.578865 102.753215 119.530887c58.721856-20.992161 88.102854-75.49953 102.753214-119.530887s25.086234-100.66604 11.599874-149.955472z" fill="#5E3B28" p-id="77260"></path><path d="M523.720288 335.633741c28.658514 41.904045 86.256507 158.063343-4.013797 325.398558 49.971778-24.082785 76.021323-73.412355 89.547821-113.991847 14.690499-44.151772 25.16651-100.66604 11.519598-149.955472-10.11477-36.405143-67.672625-54.467231-97.053622-61.451239zM758.08592 846.911257c-10.235183-121.216682-114.995296-168.579492-153.567889-182.266541 37.609282 48.526811 113.710881 160.311069 94.444653 248.855441 42.305425-33.515209 59.123236-66.588899 59.123236-66.5889z" fill="" p-id="77261"></path><path d="M390.582628 199.967388h55.390404v55.390404h-55.390404z" fill="#0F3854" p-id="77262"></path><path d="M390.582628 267.760426h207.312637v12.442772H390.582628z" fill="#00B09E" p-id="77263"></path><path d="M465.680778 199.967388h55.390404v55.390404h-55.390404z" fill="#0F3854" p-id="77264"></path><path d="M542.50486 199.967388h55.390405v55.390404h-55.390405z" fill="#0F3854" p-id="77265"></path><path d="M414.70555 280.002509m-11.078081 0a11.078081 11.078081 0 1 0 22.156162 0 11.078081 11.078081 0 1 0-22.156162 0Z" fill="#00B09E" p-id="77266"></path><path d="M571.685168 279.922233m-11.078081 0a11.078081 11.078081 0 1 0 22.156162 0 11.078081 11.078081 0 1 0-22.156162 0Z" fill="#00B09E" p-id="77267"></path></svg>