<?xml version="1.0" standalone="no"?><!DOCTYPE svg PUBLIC "-//W3C//DTD SVG 1.1//EN" "http://www.w3.org/Graphics/SVG/1.1/DTD/svg11.dtd"><svg t="1722238216935" class="icon" viewBox="0 0 1024 1024" version="1.1" xmlns="http://www.w3.org/2000/svg" p-id="6901" xmlns:xlink="http://www.w3.org/1999/xlink" width="256" height="256"><path d="M512 512m-512 0a512 512 0 1 0 1024 0 512 512 0 1 0-1024 0Z" fill="#3D72BE" p-id="6902"></path><path d="M603.464078 611.417476L263.456311 791.363107c-19.883495 9.941748-40.761165-10.935922-29.825243-30.819418l170.998058-316.147572c5.965049-10.935922 14.912621-20.87767 25.848544-26.842719l330.066019-184.916505c18.88932-10.935922 40.761165 9.941748 30.819418 29.825243l-159.067961 319.130097c-5.965049 12.924272-15.906796 22.866019-28.831068 29.825243z" fill="#FFFFFF" p-id="6903"></path><path d="M512 516.970874m-51.697087 0a51.697087 51.697087 0 1 0 103.394174 0 51.697087 51.697087 0 1 0-103.394174 0Z" fill="#3D72BE" p-id="6904"></path></svg>