<?xml version="1.0" standalone="no"?>
<!DOCTYPE svg PUBLIC "-//W3C//DTD SVG 20010904//EN"
 "http://www.w3.org/TR/2001/REC-SVG-20010904/DTD/svg10.dtd">
<svg version="1.0" xmlns="http://www.w3.org/2000/svg"
 width="1200.000000pt" height="1200.000000pt" viewBox="0 0 1200.000000 1200.000000"
 preserveAspectRatio="xMidYMid meet">

<g transform="translate(0.000000,1200.000000) scale(0.100000,-0.100000)"
fill="#000000" stroke="none">
<path d="M5045 4540 c-7 -22 -10 -23 -155 -45 -102 -16 -139 -32 -126 -54 10
-15 32 -14 162 10 63 12 117 20 119 17 6 -6 20 -120 40 -328 21 -215 31 -260
56 -260 17 0 19 7 19 58 0 31 -9 120 -21 197 -28 200 -36 345 -18 345 46 1
208 22 241 32 36 11 66 33 57 43 -3 2 -74 -3 -158 -12 -142 -14 -154 -14 -163
1 -13 22 -45 20 -53 -4z"/>
<path d="M5574 4371 c-35 -21 -62 -61 -94 -141 -13 -30 -36 -72 -52 -93 -32
-41 -30 -57 8 -57 22 0 24 -4 24 -42 0 -132 70 -189 169 -139 62 32 136 96
169 147 37 55 41 84 12 84 -13 0 -37 -24 -71 -71 -64 -87 -118 -129 -169 -129
-51 0 -60 14 -60 89 0 101 4 107 85 152 118 65 155 95 155 127 0 32 -30 65
-73 81 -41 16 -68 14 -103 -8z m100 -47 c25 -9 19 -29 -17 -60 -35 -32 -114
-71 -123 -61 -8 8 24 68 54 100 25 26 54 33 86 21z"/>
<path d="M7187 4348 c-3 -18 -9 -99 -13 -180 -4 -82 -11 -148 -15 -148 -11 0
-87 111 -147 215 -34 58 -53 80 -67 80 -11 0 -21 -8 -23 -18 -2 -10 50 -103
119 -214 l122 -196 -11 -166 c-16 -214 -16 -201 11 -201 23 0 24 3 35 146 19
224 34 540 30 629 -2 64 -6 80 -19 83 -12 2 -18 -7 -22 -30z"/>
<path d="M6170 4352 c-65 -32 -99 -115 -101 -245 -1 -84 -6 -64 -28 97 -19
142 -30 172 -55 146 -12 -13 -9 -45 20 -229 33 -209 42 -241 70 -241 23 0 32
31 38 140 14 228 41 290 123 290 22 0 48 7 59 15 19 15 19 15 0 30 -26 20 -83
19 -126 -3z"/>
<path d="M6650 4352 c-65 -32 -99 -115 -101 -245 -1 -84 -6 -64 -28 97 -19
142 -30 172 -55 146 -12 -13 -9 -45 20 -229 33 -209 42 -241 70 -241 23 0 32
31 38 140 14 228 41 290 123 290 22 0 48 7 59 15 19 15 19 15 0 30 -26 20 -83
19 -126 -3z"/>
<path d="M2720 3142 l0 -65 -60 7 c-56 7 -60 6 -60 -14 0 -18 6 -20 55 -20 30
0 55 -2 55 -3 0 -30 -76 -198 -112 -250 -22 -31 -22 -32 10 -41 20 -7 26 1 67
85 l45 93 0 -147 0 -147 25 0 24 0 -3 140 c-1 77 0 140 4 140 3 0 15 -16 26
-35 18 -32 22 -34 39 -21 18 13 18 16 -15 69 -18 31 -38 55 -44 54 -5 -1 -10
12 -11 28 0 27 4 30 33 33 25 3 32 -1 32 -14 0 -14 7 -16 51 -10 45 6 51 5 45
-9 -3 -9 -6 -27 -6 -40 0 -19 -7 -24 -40 -29 -27 -4 -40 -11 -40 -22 0 -12 8
-14 43 -9 l42 7 18 -58 c22 -69 20 -72 -88 -130 -38 -21 -71 -39 -73 -40 -2
-1 2 -12 8 -24 l11 -21 47 27 c26 15 68 42 93 60 l46 33 21 -29 c25 -33 104
-90 125 -90 8 0 17 14 21 31 9 47 7 109 -3 109 -5 0 -16 3 -25 6 -12 5 -15 -4
-18 -43 l-3 -48 -44 43 -44 43 44 45 c43 44 43 46 24 60 -19 14 -22 12 -50
-20 -16 -20 -33 -36 -36 -36 -7 0 -32 80 -26 86 2 2 40 9 85 16 66 9 82 14 82
28 0 16 -6 16 -72 4 -102 -18 -98 -19 -98 25 l0 38 70 7 c58 6 70 10 70 25 0
16 -5 17 -42 10 -24 -4 -55 -8 -70 -9 -28 0 -28 0 -28 70 0 63 -2 70 -20 70
-18 0 -20 -7 -20 -75 0 -65 -2 -75 -17 -75 -10 0 -28 -3 -39 -6 -16 -4 -23 0
-27 16 -5 18 -12 21 -44 18 l-37 -3 -1 59 c0 54 -2 59 -22 61 -22 2 -23 -2
-23 -63z"/>
<path d="M7787 3135 l6 -75 -68 0 c-60 0 -66 2 -60 18 4 9 9 32 12 50 5 29 3
32 -19 32 -22 0 -26 -6 -38 -57 -14 -67 -30 -101 -76 -164 -25 -35 -31 -48
-22 -57 7 -7 17 -12 23 -12 11 0 63 74 90 128 16 33 16 33 83 30 l67 -3 3 -62
3 -63 -91 0 c-83 0 -90 -1 -90 -20 0 -19 7 -20 90 -20 l90 0 0 -70 0 -70 -131
0 c-119 0 -130 -2 -127 -17 3 -17 24 -18 270 -18 248 -1 267 0 271 17 5 17 -5
18 -119 18 l-124 0 0 70 0 70 90 0 c83 0 90 1 90 20 0 19 -7 20 -90 20 l-90 0
0 66 0 66 100 -4 c91 -3 100 -2 100 14 0 16 -11 18 -100 18 l-100 0 0 75 c0
73 -1 75 -24 75 -24 0 -24 -1 -19 -75z"/>
<path d="M2152 3135 c-42 -65 -93 -109 -167 -147 -51 -26 -48 -23 -35 -47 l11
-21 39 20 c22 11 40 16 40 10 0 -6 31 -10 75 -10 l75 0 0 -45 0 -45 -85 0
c-77 0 -85 -2 -85 -19 0 -17 6 -18 85 -13 l85 5 0 -58 0 -57 -110 4 c-100 3
-110 2 -110 -14 0 -17 17 -18 240 -18 222 0 240 1 240 18 0 15 -12 17 -107 17
l-108 0 0 50 0 50 83 -2 c75 -1 82 0 82 18 0 17 -8 19 -85 19 l-85 0 0 45 0
45 75 0 c60 0 75 3 75 15 0 19 2 19 45 -2 33 -16 37 -16 52 -1 14 15 11 19
-45 47 -69 35 -192 144 -192 171 0 16 -19 30 -38 30 -4 0 -26 -30 -50 -65z
m165 -110 l55 -45 -149 0 -150 0 71 74 71 74 23 -29 c13 -16 48 -49 79 -74z"/>
<path d="M3010 3185 c-10 -12 -7 -21 17 -48 26 -30 32 -32 47 -21 17 12 16 15
-9 48 -31 40 -37 43 -55 21z"/>
<path d="M4145 3163 c-4 -21 -11 -55 -16 -75 -10 -38 -10 -38 -59 -38 -28 0
-50 2 -50 5 0 3 9 24 21 47 11 22 17 44 12 48 -22 23 -36 10 -68 -62 l-34 -78
80 0 79 0 -17 -42 c-25 -65 -59 -115 -124 -181 -53 -55 -57 -62 -41 -73 9 -8
20 -14 24 -14 12 0 98 102 131 156 28 47 57 70 57 46 0 -5 18 -36 40 -70 l39
-61 -29 -21 c-37 -26 -104 -50 -141 -50 -32 0 -35 -6 -14 -34 13 -17 19 -17
61 -7 52 13 97 34 133 63 23 17 25 17 50 1 39 -26 92 -50 127 -57 26 -6 32 -3
42 19 11 23 10 25 -14 25 -27 0 -144 48 -144 59 0 4 10 22 23 41 24 35 57 112
57 130 0 6 -47 10 -115 10 -63 0 -115 2 -115 4 0 3 4 16 10 30 l10 26 155 0
c150 0 155 1 155 21 0 18 -6 20 -57 19 -32 -1 -99 -1 -149 -1 l-91 1 15 66
c16 71 16 69 -15 78 -19 6 -23 2 -28 -31z m165 -258 c0 -12 -40 -84 -50 -90
-15 -9 -32 7 -58 54 l-23 41 65 0 c36 0 66 -2 66 -5z"/>
<path d="M8270 3135 l0 -65 -50 0 c-38 0 -50 -4 -50 -15 0 -11 12 -15 50 -15
l50 0 0 -64 0 -64 -50 -12 c-52 -13 -56 -16 -40 -40 8 -12 14 -12 45 3 20 9
38 17 40 17 3 0 5 -43 5 -95 0 -92 -1 -95 -24 -101 -14 -3 -30 -3 -36 1 -8 5
-11 -1 -8 -16 4 -33 51 -38 89 -10 17 13 30 17 34 11 8 -13 56 15 92 52 25 26
28 27 45 12 14 -14 20 -15 33 -4 14 12 13 15 -5 35 -19 20 -19 24 -5 58 8 20
15 48 15 62 0 24 -2 25 -70 25 -56 0 -70 -3 -70 -15 0 -11 12 -15 51 -15 48 0
50 -1 43 -22 -10 -33 -12 -34 -37 -10 -22 20 -24 21 -40 5 -16 -16 -15 -19 11
-46 l27 -29 -44 -39 c-24 -21 -47 -39 -52 -39 -5 0 -9 45 -9 100 l0 100 35 17
c19 9 35 20 35 25 0 4 50 8 110 8 104 0 110 -1 110 -20 0 -16 -6 -20 -26 -18
-15 2 -29 -3 -31 -9 -3 -9 10 -13 46 -13 28 0 51 -3 51 -7 -1 -5 -9 -24 -19
-43 l-19 -35 -13 28 c-7 15 -20 27 -31 27 -22 0 -22 -1 -1 -45 16 -34 16 -35
-7 -60 -13 -14 -43 -34 -68 -46 -38 -19 -42 -23 -29 -36 19 -19 45 -11 101 32
l44 33 46 -44 c40 -38 49 -42 66 -32 18 11 16 15 -33 59 l-52 47 18 30 c10 17
24 49 32 71 14 41 14 41 -10 41 -18 0 -25 5 -25 20 0 17 7 20 50 20 38 0 50 4
50 15 0 11 -12 15 -50 15 l-50 0 0 85 0 85 40 0 c31 0 38 3 34 15 -5 12 -34
15 -170 15 -139 0 -164 -2 -164 -15 0 -10 10 -15 30 -15 l30 0 0 -85 0 -85
-35 0 c-23 0 -35 -5 -35 -14 0 -12 -28 -25 -52 -26 -5 0 -8 23 -8 50 l0 50 40
0 c29 0 40 4 40 15 0 11 -11 15 -41 15 l-41 0 7 65 7 65 -26 0 c-25 0 -26 -2
-26 -65z m330 -5 c0 -18 -7 -20 -60 -20 -53 0 -60 2 -60 20 0 18 7 20 60 20
53 0 60 -2 60 -20z m0 -70 c0 -19 -5 -21 -57 -18 -46 2 -59 7 -61 21 -3 15 5
17 57 17 55 0 61 -2 61 -20z m0 -60 c0 -18 -7 -20 -60 -20 -53 0 -60 2 -60 20
0 18 7 20 60 20 53 0 60 -2 60 -20z"/>
<path d="M9290 3167 c-19 -17 -57 -51 -84 -74 -41 -36 -47 -45 -36 -58 10 -13
20 -8 69 32 106 89 122 105 110 120 -16 18 -19 17 -59 -20z"/>
<path d="M6038 2996 l-3 -194 -30 -43 c-16 -23 -45 -49 -62 -58 -34 -17 -37
-28 -11 -45 21 -12 78 29 113 82 36 55 44 110 45 290 l0 162 -24 0 -25 0 -3
-194z"/>
<path d="M6880 3055 c0 -126 1 -135 19 -135 10 0 21 7 25 15 3 9 18 15 36 15
28 0 30 -2 30 -40 l0 -40 -55 0 c-42 0 -55 -3 -55 -15 0 -12 13 -15 55 -15
l55 0 0 -49 c0 -48 0 -48 -37 -55 -21 -3 -50 -6 -64 -6 -23 0 -26 -4 -21 -25
2 -14 5 -25 6 -25 0 1 61 16 135 34 78 19 137 38 139 46 3 9 -2 11 -19 7 -13
-3 -41 -9 -61 -12 l-38 -7 0 46 0 46 50 0 c38 0 50 4 50 15 0 11 -12 15 -50
15 l-50 0 0 40 c0 38 2 40 30 40 20 0 30 -5 30 -15 0 -8 9 -15 20 -15 19 0 20
7 20 135 l0 135 -125 0 -125 0 0 -135z m110 69 c0 -45 0 -45 -32 -42 -28 3
-34 7 -36 31 -5 43 4 57 38 57 29 0 30 -1 30 -46z m100 1 c0 -43 -1 -45 -30
-45 -29 0 -30 2 -30 45 0 43 1 45 30 45 29 0 30 -2 30 -45z m-100 -110 c0 -45
0 -45 -35 -45 -35 0 -35 0 -35 45 0 45 0 45 35 45 35 0 35 0 35 -45z m100 0
c0 -43 -1 -45 -30 -45 -29 0 -30 2 -30 45 0 43 1 45 30 45 29 0 30 -2 30 -45z"/>
<path d="M8889 3185 c0 -3 0 -38 -1 -77 l0 -73 40 -3 c24 -2 43 -9 46 -18 4
-11 -8 -14 -64 -14 -56 0 -70 -3 -70 -15 0 -13 25 -15 166 -15 128 0 165 3
162 13 -3 7 -29 13 -68 15 -36 2 -71 8 -79 15 -12 10 -4 13 40 17 l54 5 3 78
3 77 -116 0 c-63 0 -115 -2 -116 -5z m191 -45 c0 -19 -5 -21 -77 -18 -65 3
-78 6 -81 21 -3 15 6 17 77 17 75 0 81 -2 81 -20z m0 -60 c0 -18 -7 -20 -80
-20 -73 0 -80 2 -80 20 0 18 7 20 80 20 73 0 80 -2 80 -20z"/>
<path d="M9638 2996 l-3 -194 -30 -43 c-16 -23 -45 -49 -62 -58 -34 -17 -37
-28 -11 -45 21 -12 78 29 113 82 36 55 44 110 45 290 l0 162 -24 0 -25 0 -3
-194z"/>
<path d="M3300 3160 c0 -18 7 -20 60 -20 l60 0 0 -90 0 -90 -80 0 c-73 0 -80
-2 -80 -20 0 -18 7 -20 80 -20 l80 0 0 -53 c0 -72 -40 -135 -104 -166 -40 -20
-44 -25 -34 -41 9 -15 17 -16 37 -8 80 30 137 111 147 206 l7 62 63 0 64 0 0
-135 0 -135 24 0 23 0 -5 135 -5 134 89 3 c74 3 89 6 92 20 3 15 -8 18 -85 20
l-88 3 -3 88 -3 87 71 0 c63 0 70 2 70 20 0 19 -7 20 -240 20 -233 0 -240 -1
-240 -20z m300 -110 l0 -90 -65 0 -65 0 0 90 0 90 65 0 65 0 0 -90z"/>
<path d="M4279 3164 c-11 -13 -6 -22 32 -60 41 -41 46 -43 64 -30 19 14 19 16
-25 60 -49 51 -52 52 -71 30z"/>
<path d="M4610 3160 c0 -19 7 -20 105 -20 l105 0 0 -195 0 -195 -125 0 c-118
0 -125 -1 -125 -20 0 -20 7 -20 280 -20 272 0 280 1 280 20 0 18 -8 20 -132
22 l-133 3 -3 193 -2 192 115 0 c108 0 115 1 115 20 0 19 -7 20 -240 20 -233
0 -240 -1 -240 -20z"/>
<path d="M6120 3160 c0 -18 6 -20 66 -20 l65 0 -3 -42 -3 -43 -57 -3 -58 -3 0
-154 c0 -148 1 -155 20 -155 19 0 20 7 20 140 l0 140 40 0 40 0 0 -185 c0
-178 1 -185 20 -185 19 0 20 7 20 185 l0 185 45 0 45 0 0 -110 0 -110 -26 0
c-20 0 -25 -4 -20 -16 3 -9 6 -20 6 -25 0 -14 33 -11 58 7 21 14 22 22 22 149
l0 134 -62 3 -63 3 -3 43 -3 42 86 0 c77 0 86 2 83 18 -3 15 -20 17 -171 20
-162 2 -167 2 -167 -18z"/>
<path d="M7170 3165 c0 -12 14 -15 70 -15 39 0 70 -3 70 -7 0 -5 -12 -21 -26
-37 -23 -26 -26 -27 -43 -12 -16 15 -20 15 -31 2 -10 -13 -6 -22 19 -53 l32
-38 -56 -3 c-70 -4 -70 -26 -1 -30 l47 -3 -3 -137 -3 -137 -33 -3 c-25 -3 -32
-7 -28 -19 3 -8 6 -19 6 -25 0 -14 61 1 83 20 15 13 17 34 17 159 l0 143 31 0
c31 0 31 -1 16 -24 -15 -22 -8 -46 14 -46 8 0 59 77 59 90 0 6 -24 10 -55 10
-30 0 -54 3 -53 8 0 4 -2 15 -6 24 -8 17 30 75 68 107 8 7 12 19 9 27 -8 21
-203 21 -203 -1z"/>
<path d="M9720 3160 c0 -18 6 -20 66 -20 l65 0 -3 -42 -3 -43 -57 -3 -58 -3 0
-154 c0 -148 1 -155 20 -155 19 0 20 7 20 140 l0 140 40 0 40 0 0 -185 c0
-178 1 -185 20 -185 19 0 20 7 20 185 l0 185 45 0 45 0 0 -110 0 -110 -26 0
c-20 0 -25 -4 -20 -16 3 -9 6 -20 6 -25 0 -14 33 -11 58 7 21 14 22 22 22 149
l0 134 -62 3 -63 3 -3 43 -3 42 86 0 c77 0 86 2 83 18 -3 15 -20 17 -171 20
-162 2 -167 2 -167 -18z"/>
<path d="M5530 3075 c0 -88 1 -95 20 -95 11 0 20 7 20 15 0 12 14 15 70 15 54
0 72 -4 76 -15 4 -8 15 -15 25 -15 17 0 19 8 19 95 l0 95 -115 0 -115 0 0 -95z
m188 13 l-3 -53 -72 -3 -73 -3 0 56 0 55 76 0 75 0 -3 -52z"/>
<path d="M5415 3150 c-16 -4 -61 -8 -98 -9 -66 -1 -67 -2 -56 -22 9 -19 17
-21 55 -15 l44 6 0 -40 0 -39 -62 -3 c-38 -2 -63 -8 -66 -15 -3 -10 13 -13 57
-13 34 0 61 -3 61 -6 0 -8 -53 -103 -93 -167 -25 -40 -28 -50 -16 -58 23 -14
25 -12 68 56 23 36 44 65 47 65 3 0 4 -53 3 -117 -4 -116 -3 -118 19 -121 22
-3 22 -2 22 124 l0 127 25 -23 c24 -22 27 -23 42 -7 15 15 13 19 -25 58 -56
55 -55 69 6 69 37 0 49 4 49 15 0 11 -12 15 -49 15 l-48 0 0 39 c0 42 11 51
61 51 22 0 29 5 29 20 0 22 -19 24 -75 10z"/>
<path d="M5940 2960 l0 -160 25 0 25 0 0 160 0 160 -25 0 -25 0 0 -160z"/>
<path d="M9540 2960 l0 -160 25 0 25 0 0 160 0 160 -25 0 -25 0 0 -160z"/>
<path d="M9290 2988 c-30 -27 -74 -61 -97 -75 -46 -26 -53 -40 -27 -50 17 -6
132 68 179 117 25 26 27 32 15 44 -13 12 -23 7 -70 -36z"/>
<path d="M5500 2925 c0 -12 13 -15 55 -15 30 0 56 -4 56 -10 1 -5 2 -21 2 -35
0 -14 -1 -29 -2 -35 0 -5 -24 -10 -52 -10 -67 0 -62 -23 6 -30 49 -5 49 -5 50
-42 2 -56 -5 -61 -74 -56 -46 3 -61 1 -61 -9 0 -10 35 -13 160 -13 129 0 160
3 160 14 0 10 -15 12 -70 8 l-70 -5 0 52 0 51 55 0 c42 0 55 3 55 15 0 12 -13
15 -55 15 l-55 0 0 45 0 45 55 0 c42 0 55 3 55 15 0 13 -22 15 -135 15 -113 0
-135 -2 -135 -15z"/>
<path d="M8890 2891 l0 -50 48 -3 47 -3 3 -72 3 -73 -31 0 c-23 0 -30 -4 -30
-20 0 -16 7 -20 30 -20 47 0 70 31 70 92 l0 52 38 -37 c21 -20 43 -37 49 -37
28 0 22 24 -15 64 -37 40 -42 42 -56 28 -15 -15 -16 -14 -16 6 0 19 5 22 40
22 l40 0 0 50 0 50 -110 0 -110 0 0 -49z m180 -1 l0 -30 -70 0 -70 0 0 30 0
30 70 0 70 0 0 -30z"/>
<path d="M6655 2885 c-94 -31 -131 -55 -86 -55 26 0 183 49 196 61 6 6 6 12 0
18 -6 6 -47 -3 -110 -24z"/>
<path d="M9314 2834 c-44 -54 -106 -97 -175 -119 -48 -16 -64 -40 -34 -51 55
-22 320 178 274 207 -22 14 -24 12 -65 -37z"/>
<path d="M8881 2764 c-34 -43 -41 -58 -31 -67 9 -9 23 0 61 42 28 29 48 58 46
65 -9 26 -35 13 -76 -40z"/>
</g>
</svg>
