<?xml version="1.0" standalone="no"?>
<!DOCTYPE svg PUBLIC "-//W3C//DTD SVG 20010904//EN"
 "http://www.w3.org/TR/2001/REC-SVG-20010904/DTD/svg10.dtd">
<svg version="1.0" xmlns="http://www.w3.org/2000/svg"
 width="1024.000000pt" height="1024.000000pt" viewBox="0 0 1024.000000 1024.000000"
 preserveAspectRatio="xMidYMid meet">

<g transform="translate(0.000000,1024.000000) scale(0.100000,-0.100000)"
fill="#000000" stroke="none">
<path d="M0 5120 l0 -5120 5120 0 5120 0 0 5120 0 5120 -5120 0 -5120 0 0
-5120z m4348 3605 c-3 -3 -61 -14 -129 -25 -204 -31 -386 -85 -534 -157 -117
-56 -235 -127 -235 -140 0 -18 17 -16 82 6 81 28 182 41 310 40 l113 0 -135
-39 c-380 -111 -511 -181 -628 -335 -71 -95 -136 -265 -101 -265 6 0 27 12 47
28 20 15 33 20 28 12 -4 -8 1 -5 12 7 11 12 22 19 26 16 3 -4 6 -1 6 6 0 7 4
10 8 7 5 -3 18 3 29 14 12 10 24 16 27 13 3 -4 6 -1 6 6 0 7 5 9 10 6 6 -3 10
-2 10 3 0 19 280 132 329 132 23 0 -99 -66 -188 -101 -42 -17 -105 -46 -140
-64 -35 -19 -69 -31 -75 -28 -6 3 -8 2 -3 -2 9 -10 -43 -46 -55 -39 -5 3 -8 2
-7 -3 1 -4 -36 -46 -82 -93 -53 -54 -93 -104 -108 -138 l-24 -52 -17 28 c-21
34 -108 108 -142 121 -17 7 -29 6 -37 -2 -8 -8 1 -22 37 -54 26 -24 37 -39 26
-34 -48 23 -102 29 -123 14 -35 -24 -24 -40 49 -68 38 -15 73 -32 76 -37 5 -7
2 -8 -6 -3 -9 5 -11 4 -6 -4 4 -6 12 -9 17 -5 13 7 41 -15 33 -27 -3 -5 0 -8
6 -7 6 2 22 -11 36 -28 l25 -32 -57 19 c-82 27 -232 26 -290 -1 -48 -24 -62
-47 -39 -69 13 -13 21 -13 62 -1 73 21 176 25 210 6 l28 -15 -32 -1 c-44 0
-137 -36 -174 -67 -85 -72 -75 -191 11 -128 18 13 37 22 41 19 5 -3 9 -1 9 4
0 5 11 12 24 14 24 5 24 5 -10 -56 -46 -85 -67 -181 -61 -283 5 -81 4 -83 -18
-83 -59 0 -26 -60 44 -81 34 -10 47 -9 82 4 l41 16 -5 -27 c-4 -15 -12 -63
-18 -108 -13 -87 -12 -93 46 -284 17 -55 30 -127 35 -204 12 -144 27 -181 133
-323 41 -56 79 -117 85 -135 5 -18 15 -52 21 -75 7 -25 33 -68 64 -104 91
-107 107 -135 114 -191 7 -63 25 -102 57 -123 15 -10 28 -33 35 -62 8 -32 25
-58 55 -87 29 -28 46 -57 56 -90 9 -34 23 -55 49 -74 19 -15 59 -49 87 -77 44
-43 52 -57 59 -100 9 -64 34 -112 80 -154 l37 -33 -6 -97 c-15 -213 -29 -348
-40 -381 -7 -24 -21 -40 -44 -51 -19 -8 -43 -30 -54 -48 -14 -22 -26 -30 -36
-26 -29 11 -100 18 -125 12 -36 -10 -47 -47 -47 -167 0 -128 8 -119 -132 -156
-159 -43 -176 -59 -193 -183 -15 -108 -35 -141 -108 -177 -74 -37 -94 -59
-118 -131 -16 -48 -36 -81 -81 -131 -83 -92 -166 -219 -212 -327 -22 -49 -43
-94 -46 -98 -4 -4 -41 29 -82 75 -395 440 -680 970 -828 1543 -122 472 -145
1072 -60 1573 101 590 357 1150 739 1617 36 44 121 138 190 208 127 130 303
293 266 246 -11 -14 -2 -6 20 16 46 48 112 102 206 168 54 38 68 54 78 89 17
54 61 142 96 188 39 52 221 215 295 264 186 123 423 207 677 240 113 14 220
20 211 11z m892 -279 c0 -2 -8 -10 -17 -17 -16 -13 -17 -12 -4 4 13 16 21 21
21 13z m59 -107 c-11 -16 -25 -32 -31 -36 -7 -3 -2 7 10 24 12 17 19 32 17 35
-3 3 2 5 9 5 12 0 11 -6 -5 -28z m758 -1 c-3 -7 -5 -2 -5 12 0 14 2 19 5 13 2
-7 2 -19 0 -25z m-949 -41 c-24 -30 -49 -62 -56 -73 -7 -10 -1 5 14 34 15 28
31 52 36 52 5 0 6 5 3 10 -4 6 -3 10 2 9 20 -3 27 2 13 11 -12 8 -11 10 8 10
21 0 19 -4 -20 -53z m433 -60 c-10 -9 -11 -8 -5 6 3 10 9 15 12 12 3 -3 0 -11
-7 -18z m52 -174 c-3 -7 -6 -13 -8 -13 -2 0 -5 6 -8 13 -3 8 1 14 8 14 7 0 11
-6 8 -14z m-18 -41 c-6 -4 -11 -14 -13 -22 -3 -17 -61 -131 -73 -144 -4 -5 10
32 31 83 22 50 40 97 40 103 0 9 3 9 12 0 8 -8 9 -15 3 -20z m985 4 c0 -3 -4
-8 -10 -11 -5 -3 -10 -1 -10 4 0 6 5 11 10 11 6 0 10 -2 10 -4z m-3135 -170
c-11 -8 -24 -12 -28 -9 -11 7 12 23 32 23 11 0 9 -4 -4 -14z m-40 -15 c3 -6
-4 -15 -16 -21 -17 -10 -20 -9 -14 2 5 7 -4 0 -19 -15 -15 -16 -33 -26 -41
-23 -8 3 -17 0 -21 -6 -4 -7 -3 -8 4 -4 7 4 12 5 12 2 0 -3 -13 -12 -30 -21
-16 -9 -30 -14 -30 -12 0 6 -81 -64 -118 -103 -38 -40 -57 -73 -83 -145 l-18
-50 -1 46 c0 34 8 59 36 105 41 69 103 136 117 127 6 -3 7 -1 4 5 -9 13 132
104 151 97 8 -3 10 0 6 7 -5 7 -2 9 8 6 8 -4 21 -2 29 3 17 11 17 11 24 0z
m747 -82 c-129 -21 -172 -33 -172 -48 0 -4 96 -11 213 -14 241 -6 381 -26 573
-81 144 -42 206 -64 179 -65 -11 0 -85 6 -165 15 -80 8 -262 17 -405 21 -298
7 -426 -4 -552 -46 -103 -34 -99 -22 6 18 72 28 179 50 314 67 31 3 47 10 44
17 -3 9 -40 12 -128 10 -183 -2 -305 -35 -382 -103 -45 -39 -46 -31 -7 37 36
62 76 95 161 129 72 29 270 62 374 62 69 0 68 0 -53 -19z m2428 -73 c0 -2 -8
-10 -17 -17 -16 -13 -17 -12 -4 4 13 16 21 21 21 13z m-100 -80 c0 -2 -8 -10
-17 -17 -16 -13 -17 -12 -4 4 13 16 21 21 21 13z m-86 -98 c-4 -6 -10 -6 -17
1 -7 7 -15 7 -26 -2 -14 -10 -14 -10 -3 4 13 18 57 14 46 -3z m116 -1 c0 -2
-10 -12 -22 -23 l-23 -19 19 23 c18 21 26 27 26 19z m-1250 -139 c-81 -75
-133 -96 -281 -109 -149 -14 -212 -3 -207 34 3 21 8 22 168 28 178 7 202 11
300 63 36 19 67 34 70 35 3 0 -20 -23 -50 -51z m910 -113 c0 -5 -5 -3 -10 5
-5 8 -10 20 -10 25 0 6 5 3 10 -5 5 -8 10 -19 10 -25z m20 -50 c0 -5 -5 -3
-10 5 -5 8 -10 20 -10 25 0 6 5 3 10 -5 5 -8 10 -19 10 -25z m57 -217 c-3 -8
-6 -5 -6 6 -1 11 2 17 5 13 3 -3 4 -12 1 -19z m10 -40 c-3 -8 -6 -5 -6 6 -1
11 2 17 5 13 3 -3 4 -12 1 -19z m57 -108 c11 -14 6 -11 -11 7 -18 18 -33 38
-33 45 0 7 6 4 12 -7 6 -11 20 -31 32 -45z m-194 -453 c0 -2 -10 -12 -22 -23
l-23 -19 19 23 c18 21 26 27 26 19z m-60 -77 c-6 -11 -13 -20 -16 -20 -2 0 0
9 6 20 6 11 13 20 16 20 2 0 0 -9 -6 -20z m70 -164 c0 -2 -13 -6 -30 -8 -16
-3 -30 -1 -30 4 0 4 14 8 30 8 17 0 30 -2 30 -4z m-85 -26 c-3 -5 0 -12 6 -16
6 -3 15 0 20 7 6 10 9 7 9 -12 0 -21 -7 -28 -37 -37 -44 -13 -165 -29 -278
-36 -77 -6 -210 -15 -487 -36 -73 -5 -173 -12 -223 -15 -49 -4 -144 -10 -210
-15 -247 -19 -365 -23 -365 -13 0 33 37 41 275 57 664 46 1112 82 1200 96 33
5 64 16 70 24 9 15 29 11 20 -4z m45 -83 c0 -7 14 -21 30 -31 17 -9 28 -22 24
-28 -4 -6 -10 -6 -17 1 -16 16 -31 13 -17 -4 6 -8 9 -19 5 -26 -11 -16 -45 40
-45 74 0 15 5 27 10 27 6 0 10 -6 10 -13z m-51 -78 c-12 -7 -11 -9 1 -9 11 0
11 -3 2 -12 -15 -15 -16 -64 -2 -73 8 -5 7 -11 -1 -21 -9 -12 -9 -13 3 -9 17
7 21 -23 6 -42 -5 -7 -5 -14 2 -18 6 -4 9 -1 8 6 -2 6 4 14 12 16 9 3 11 1 5
-4 -14 -11 -17 -33 -9 -52 4 -9 9 -27 11 -41 2 -14 6 -32 10 -40 3 -8 7 -17 7
-20 5 -20 29 -49 36 -45 6 3 7 -1 4 -9 -6 -16 28 -40 40 -28 4 3 4 -1 0 -11
-8 -21 -23 -22 -30 -2 -4 8 -10 13 -14 10 -12 -7 -48 47 -42 64 3 8 0 11 -7 7
-7 -5 -9 -1 -5 8 3 9 1 16 -5 16 -6 0 -8 7 -4 17 4 11 3 14 -5 9 -13 -8 -17 6
-5 18 4 3 8 13 9 22 2 12 -1 13 -12 3 -11 -9 -14 -8 -15 7 0 11 -2 28 -5 39
-9 42 -17 184 -10 200 3 9 11 13 17 9 8 -4 7 -9 -2 -15z m-1631 -34 c117 -53
194 -131 212 -212 16 -69 -34 -184 -93 -214 l-22 -12 21 24 c60 67 80 158 49
219 -19 37 -105 106 -165 133 -29 13 -69 20 -111 21 -84 1 -135 -29 -170 -101
-46 -93 -24 -318 45 -469 32 -69 91 -127 196 -191 49 -30 114 -81 154 -122 57
-59 79 -74 124 -87 49 -15 58 -15 96 0 24 9 62 32 84 52 31 26 42 31 42 19 0
-30 -30 -75 -62 -91 -42 -22 -165 -14 -228 13 -54 24 -334 233 -408 305 -101
99 -159 264 -150 427 4 57 12 102 25 131 26 56 114 161 151 178 40 19 143 7
210 -23z m2383 8 c13 -16 12 -17 -3 -4 -10 7 -18 15 -18 17 0 8 8 3 21 -13z
m1836 -15 c-3 -8 -6 -5 -6 6 -1 11 2 17 5 13 3 -3 4 -12 1 -19z m-1782 -40 c0
-9 18 -35 39 -57 76 -78 43 -71 -45 10 -49 45 -89 84 -89 87 0 3 14 -7 30 -23
17 -16 30 -23 30 -16 0 11 3 11 15 1 14 -11 14 -10 5 14 -13 36 -12 46 3 21 6
-11 12 -28 12 -37z m1787 -10 c-6 -6 -12 -6 -17 3 -5 8 -4 10 3 5 7 -4 12 0
13 11 0 12 2 13 6 5 3 -8 1 -18 -5 -24z m-4660 -76 c-36 -49 -110 -112 -126
-106 -17 7 -31 42 -21 52 9 10 159 88 164 85 2 -1 -6 -15 -17 -31z m4695 -54
c-3 -8 -6 -5 -6 6 -1 11 2 17 5 13 3 -3 4 -12 1 -19z m-1678 -5 c13 3 19 1 15
-5 -4 -6 7 -8 30 -5 22 3 33 1 30 -5 -4 -6 4 -8 17 -7 13 2 29 0 34 -3 6 -4
53 -14 105 -23 52 -9 97 -18 100 -20 3 -2 66 -18 140 -35 195 -45 514 -148
635 -205 17 -7 53 -23 80 -35 58 -25 165 -79 251 -126 33 -19 64 -31 69 -26 5
4 5 2 2 -4 -4 -7 6 -17 26 -24 17 -7 37 -18 42 -24 24 -26 76 -56 87 -50 7 5
8 3 3 -6 -6 -10 -2 -12 18 -8 14 3 26 2 25 -1 -2 -18 4 -21 24 -10 l21 11 -7
-193 c-24 -693 -198 -1278 -549 -1845 -150 -243 -296 -424 -532 -660 -199
-200 -375 -347 -560 -469 -126 -83 -337 -203 -441 -251 l-71 -32 -36 92 c-58
147 -121 251 -211 344 -174 181 -364 273 -800 387 -88 22 -161 46 -164 53 -6
19 81 15 197 -9 57 -11 105 -19 107 -16 9 8 -191 161 -331 252 -219 143 -517
323 -602 362 -82 38 -162 48 -243 31 l-35 -8 35 14 c55 22 145 19 222 -8 136
-48 705 -396 938 -574 85 -65 163 -108 168 -93 1 4 -7 30 -19 57 -26 61 -35
158 -20 220 15 59 12 62 -94 99 -175 61 -473 221 -834 447 -208 130 -360 205
-646 321 -115 46 -218 87 -227 90 -21 8 -24 37 -4 37 20 0 319 -113 456 -172
176 -77 241 -111 430 -231 299 -188 395 -246 432 -261 32 -14 37 -14 50 2 9 9
34 69 58 132 75 201 121 282 213 374 46 45 88 95 95 111 6 17 23 84 37 149 29
137 29 136 -50 159 l-50 14 85 7 c47 4 225 6 395 4 l310 -3 90 28 c229 72 363
201 340 325 -4 20 -22 67 -41 105 -62 122 -59 230 8 303 36 39 40 48 34 78 -4
22 -20 46 -42 66 -31 27 -40 30 -72 23 -20 -4 -47 -7 -59 -8 -11 0 -19 -3 -17
-6 7 -12 -46 -20 -82 -13 l-35 6 65 23 c136 47 242 136 217 182 -5 10 -25 32
-44 49 -77 67 -75 248 2 266 7 2 25 13 39 25 13 13 29 20 35 16 6 -3 7 -1 3 5
-3 6 0 14 8 19 44 26 71 127 45 175 -8 15 -8 19 0 14 6 -4 11 -1 11 6 0 10 2
10 9 -1 5 -8 18 -12 30 -8z m1698 -95 c-3 -8 -6 -5 -6 6 -1 11 2 17 5 13 3 -3
4 -12 1 -19z m-2337 -83 c0 -10 -58 -34 -95 -39 -40 -6 -40 -6 6 8 25 7 54 18
65 24 22 13 24 14 24 7z m-143 -31 c-3 -3 -12 -4 -19 -1 -8 3 -5 6 6 6 11 1
17 -2 13 -5z m2500 -26 c-3 -7 -5 -2 -5 12 0 14 2 19 5 13 2 -7 2 -19 0 -25z
m-3936 -121 c39 -59 44 -117 13 -147 l-21 -21 5 30 c3 21 -3 39 -22 63 -40 53
-69 126 -61 156 l6 26 25 -30 c13 -16 38 -51 55 -77z m3946 41 c-3 -8 -6 -5
-6 6 -1 11 2 17 5 13 3 -3 4 -12 1 -19z m10 -135 c-2 -16 -4 -5 -4 22 0 28 2
40 4 28 2 -13 2 -35 0 -50z m-4235 -79 c37 -19 68 -36 68 -38 0 -10 -129 22
-157 39 -36 21 -56 58 -48 86 5 16 10 14 37 -17 17 -19 62 -51 100 -70z m4245
-66 c-3 -8 -6 -5 -6 6 -1 11 2 17 5 13 3 -3 4 -12 1 -19z m-2140 -194 c-3 -3
-12 -4 -19 -1 -8 3 -5 6 6 6 11 1 17 -2 13 -5z m-110 -31 c-8 -10 -31 -26 -49
-36 -31 -17 -30 -16 11 23 42 39 71 49 38 13z"/>
<path d="M6860 5805 c19 -19 36 -35 39 -35 3 0 -10 16 -29 35 -19 19 -36 35
-39 35 -3 0 10 -16 29 -35z"/>
<path d="M5445 3180 c-33 -64 -6 -159 54 -189 49 -25 185 -71 209 -71 11 0 30
8 42 18 l23 19 -78 64 c-43 35 -109 92 -147 127 -38 34 -74 62 -79 62 -4 0
-15 -13 -24 -30z"/>
</g>
</svg>
